HIERARCHY
ROOT hip
{
  OFFSET 0 90.174 2.4664
  CHANNELS 6 Xposition Yposition Zposition Zrotation Xrotation Yrotation
  JOINT abdomen
  {
    OFFSET 0 -1.186 -1.5018
    CHANNELS 6 Xposition Yposition Zposition Zrotation Xrotation Yrotation
    JOINT abdomen2
    {
      OFFSET 0 9.964 0.2134
      CHANNELS 6 Xposition Yposition Zposition Zrotation Xrotation Yrotation
      JOINT chest
      {
        OFFSET 0 13.134 -3.2573
        CHANNELS 6 Xposition Yposition Zposition Zrotation Xrotation Yrotation
        JOINT neck
        {
          OFFSET 0 20.686 -1.6905
          CHANNELS 6 Xposition Yposition Zposition Zrotation Xrotation Yrotation
          JOINT head
          {
            OFFSET 0 7.238 -0.1237
            CHANNELS 6 Xposition Yposition Zposition Zrotation Xrotation Yrotation
            End Site
            {
              OFFSET 0 0 0
            }
          }
        }
        JOINT lCollar
        {
          OFFSET 1.7069 20.075 5.0056
          CHANNELS 6 Xposition Yposition Zposition Zrotation Xrotation Yrotation
          JOINT lShldr
          {
            OFFSET 13.6458 -0.047 -4.849
            CHANNELS 6 Xposition Yposition Zposition Zrotation Xrotation Yrotation
            JOINT lForeArm
            {
              OFFSET 28.3255 -0.9759 2.2888
              CHANNELS 6 Xposition Yposition Zposition Zrotation Xrotation Yrotation
              JOINT lHand
              {
                OFFSET 22.1583 -0.53 10.8316
                CHANNELS 6 Xposition Yposition Zposition Zrotation Xrotation Yrotation
                JOINT lThumb1
                {
                  OFFSET 0.786 0.112 2.5817
                  CHANNELS 6 Xposition Yposition Zposition Zrotation Xrotation Yrotation
                  JOINT lThumb2
                  {
                    OFFSET 0.3601 -0.878 4.2331
                    CHANNELS 6 Xposition Yposition Zposition Zrotation Xrotation Yrotation
                    JOINT lThumb2_End
                    {
                      OFFSET 1.8127 -1.216 2.2227
                      CHANNELS 6 Xposition Yposition Zposition Zrotation Xrotation Yrotation
                      End Site
                      {
                        OFFSET 0.0181 -0.0122 0.0222
                      }
                    }
                  }
                }
                JOINT lCarpal1
                {
                  OFFSET 0.9571 1.114 1.7695
                  CHANNELS 6 Xposition Yposition Zposition Zrotation Xrotation Yrotation
                  JOINT lIndex1
                  {
                    OFFSET 4.1246 0.487 4.1451
                    CHANNELS 6 Xposition Yposition Zposition Zrotation Xrotation Yrotation
                    JOINT lIndex2
                    {
                      OFFSET 3.4052 -1.454 2.7682
                      CHANNELS 6 Xposition Yposition Zposition Zrotation Xrotation Yrotation
                      JOINT lIndex2_End
                      {
                        OFFSET 1.4531 -1.795 1.2713
                        CHANNELS 6 Xposition Yposition Zposition Zrotation Xrotation Yrotation
                        End Site
                        {
                          OFFSET 0.0145 -0.0179 0.0127
                        }
                      }
                    }
                  }
                  JOINT lMid1
                  {
                    OFFSET 5.6954 0.21 2.1184
                    CHANNELS 6 Xposition Yposition Zposition Zrotation Xrotation Yrotation
                    JOINT lMid2
                    {
                      OFFSET 3.9766 -1.54 2.3863
                      CHANNELS 6 Xposition Yposition Zposition Zrotation Xrotation Yrotation
                      JOINT lMid2_End
                      {
                        OFFSET 1.4042 -1.926 1.125
                        CHANNELS 6 Xposition Yposition Zposition Zrotation Xrotation Yrotation
                        End Site
                        {
                          OFFSET 0.014 -0.0193 0.0113
                        }
                      }
                    }
                  }
                }
                JOINT lCarpal2
                {
                  OFFSET 2.0956 0.66 -0.3894
                  CHANNELS 6 Xposition Yposition Zposition Zrotation Xrotation Yrotation
                  JOINT lRing1
                  {
                    OFFSET 5.0395 -0.09 2.4971
                    CHANNELS 6 Xposition Yposition Zposition Zrotation Xrotation Yrotation
                    JOINT lRing2
                    {
                      OFFSET 3.7921 -1.552 1.4806
                      CHANNELS 6 Xposition Yposition Zposition Zrotation Xrotation Yrotation
                      JOINT lRing2_End
                      {
                        OFFSET 1.4655 -1.808 0.9609
                        CHANNELS 6 Xposition Yposition Zposition Zrotation Xrotation Yrotation
                        End Site
                        {
                          OFFSET 0.0147 -0.0181 0.0096
                        }
                      }
                    }
                  }
                  JOINT lPinky1
                  {
                    OFFSET 4.9141 -1.269 0.3591
                    CHANNELS 6 Xposition Yposition Zposition Zrotation Xrotation Yrotation
                    JOINT lPinky2
                    {
                      OFFSET 3.1477 -1.685 0.8462
                      CHANNELS 6 Xposition Yposition Zposition Zrotation Xrotation Yrotation
                      JOINT lPinky2_End
                      {
                        OFFSET 0.8055 -1.585 0.7955
                        CHANNELS 6 Xposition Yposition Zposition Zrotation Xrotation Yrotation
                        End Site
                        {
                          OFFSET 0.0081 -0.0158 0.008
                        }
                      }
                    }
                  }
                }
              }
            }
          }
        }
        JOINT rCollar
        {
          OFFSET -1.7069 20.075 5.0056
          CHANNELS 6 Xposition Yposition Zposition Zrotation Xrotation Yrotation
          JOINT rShldr
          {
            OFFSET -13.6458 -0.047 -4.849
            CHANNELS 6 Xposition Yposition Zposition Zrotation Xrotation Yrotation
            JOINT rForeArm
            {
              OFFSET -28.3255 -0.9759 2.2888
              CHANNELS 6 Xposition Yposition Zposition Zrotation Xrotation Yrotation
              JOINT rHand
              {
                OFFSET -22.1583 -0.53 10.8316
                CHANNELS 6 Xposition Yposition Zposition Zrotation Xrotation Yrotation
                JOINT rThumb1
                {
                  OFFSET -0.786 0.112 2.5817
                  CHANNELS 6 Xposition Yposition Zposition Zrotation Xrotation Yrotation
                  JOINT rThumb2
                  {
                    OFFSET -0.3601 -0.878 4.2331
                    CHANNELS 6 Xposition Yposition Zposition Zrotation Xrotation Yrotation
                    JOINT rThumb2_End
                    {
                      OFFSET -1.8127 -1.216 2.2227
                      CHANNELS 6 Xposition Yposition Zposition Zrotation Xrotation Yrotation
                      End Site
                      {
                        OFFSET -0.0181 -0.0122 0.0222
                      }
                    }
                  }
                }
                JOINT rCarpal1
                {
                  OFFSET -0.9571 1.114 1.7695
                  CHANNELS 6 Xposition Yposition Zposition Zrotation Xrotation Yrotation
                  JOINT rIndex1
                  {
                    OFFSET -4.1246 0.487 4.1451
                    CHANNELS 6 Xposition Yposition Zposition Zrotation Xrotation Yrotation
                    JOINT rIndex2
                    {
                      OFFSET -3.4052 -1.454 2.7682
                      CHANNELS 6 Xposition Yposition Zposition Zrotation Xrotation Yrotation
                      JOINT rIndex2_End
                      {
                        OFFSET -1.4531 -1.795 1.2713
                        CHANNELS 6 Xposition Yposition Zposition Zrotation Xrotation Yrotation
                        End Site
                        {
                          OFFSET -0.0145 -0.018 0.0127
                        }
                      }
                    }
                  }
                  JOINT rMid1
                  {
                    OFFSET -5.6954 0.21 2.1184
                    CHANNELS 6 Xposition Yposition Zposition Zrotation Xrotation Yrotation
                    JOINT rMid2
                    {
                      OFFSET -3.9766 -1.54 2.3863
                      CHANNELS 6 Xposition Yposition Zposition Zrotation Xrotation Yrotation
                      JOINT rMid2_End
                      {
                        OFFSET -1.4042 -1.926 1.125
                        CHANNELS 6 Xposition Yposition Zposition Zrotation Xrotation Yrotation
                        End Site
                        {
                          OFFSET -0.014 -0.0193 0.0113
                        }
                      }
                    }
                  }
                }
                JOINT rCarpal2
                {
                  OFFSET -2.0956 0.66 -0.3894
                  CHANNELS 6 Xposition Yposition Zposition Zrotation Xrotation Yrotation
                  JOINT rRing1
                  {
                    OFFSET -5.0395 -0.09 2.4971
                    CHANNELS 6 Xposition Yposition Zposition Zrotation Xrotation Yrotation
                    JOINT rRing2
                    {
                      OFFSET -3.7921 -1.552 1.4806
                      CHANNELS 6 Xposition Yposition Zposition Zrotation Xrotation Yrotation
                      JOINT rRing2_End
                      {
                        OFFSET -1.4655 -1.808 0.9609
                        CHANNELS 6 Xposition Yposition Zposition Zrotation Xrotation Yrotation
                        End Site
                        {
                          OFFSET -0.0147 -0.0181 0.0096
                        }
                      }
                    }
                  }
                  JOINT rPinky1
                  {
                    OFFSET -4.9141 -1.269 0.3592
                    CHANNELS 6 Xposition Yposition Zposition Zrotation Xrotation Yrotation
                    JOINT rPinky2
                    {
                      OFFSET -3.1477 -1.685 0.8462
                      CHANNELS 6 Xposition Yposition Zposition Zrotation Xrotation Yrotation
                      JOINT rPinky2_End
                      {
                        OFFSET -0.8055 -1.585 0.7955
                        CHANNELS 6 Xposition Yposition Zposition Zrotation Xrotation Yrotation
                        End Site
                        {
                          OFFSET -0.0081 -0.0158 0.008
                        }
                      }
                    }
                  }
                }
              }
            }
          }
        }
      }
    }
  }
  JOINT lThigh
  {
    OFFSET 8.367 -8.2066 0.5982
    CHANNELS 6 Xposition Yposition Zposition Zrotation Xrotation Yrotation
    JOINT lShin
    {
      OFFSET 2.1923 -43.463 -0.4932
      CHANNELS 6 Xposition Yposition Zposition Zrotation Xrotation Yrotation
      JOINT lFoot
      {
        OFFSET 0.7333 -45.8593 -2.6451
        CHANNELS 6 Xposition Yposition Zposition Zrotation Xrotation Yrotation
        End Site
        {
          OFFSET 2.6618 -4.2699 12.3931
        }
      }
    }
  }
  JOINT rThigh
  {
    OFFSET -8.367 -8.2066 0.5982
    CHANNELS 6 Xposition Yposition Zposition Zrotation Xrotation Yrotation
    JOINT rShin
    {
      OFFSET -2.1923 -43.463 -0.4931
      CHANNELS 6 Xposition Yposition Zposition Zrotation Xrotation Yrotation
      JOINT rFoot
      {
        OFFSET -0.7333 -45.8593 -2.6451
        CHANNELS 6 Xposition Yposition Zposition Zrotation Xrotation Yrotation
        End Site
        {
          OFFSET -2.6618 -4.2699 12.3931
        }
      }
    }
  }
}
MOTION
Frames:	4
Frame Time:	0.0333333
0 90.174 2.4664 0 0 -0 0 -1.186 -1.5018 0 0 -0 0 9.964 0.2134 0 0 -0 0 13.134 -3.2573 0 0 -0 0 20.686 -1.6905 0 0 -0 0 7.238 -0.1237 0 0 -0 1.7069 20.075 5.0056 0 0 -0 13.6458 -0.047 -4.849 1.66051 0.0835086 5.75766 28.3255 -0.9759 2.2888 -0.0175111 0.895433 15.7816 22.1583 -0.53 10.8316 7.95139e-016 -1.98785e-016 -0 0.786 0.112 2.5817 5.46658e-016 -3.97569e-016 -0 0.3601 -0.878 4.2331 5.96354e-016 0 -0 1.8127 -1.216 2.2227 3.97569e-016 1.98785e-016 9.54166e-015 0.9571 1.114 1.7695 1.49089e-016 -3.97569e-016 -0 4.1246 0.487 4.1451 6.4605e-016 0 3.18055e-015 3.4052 -1.454 2.7682 5.96354e-016 0 3.18055e-015 1.4531 -1.795 1.2713 8.94531e-016 -1.98785e-016 6.36111e-015 5.6954 0.21 2.1184 6.4605e-016 0 3.18055e-015 3.9766 -1.54 2.3863 5.96354e-016 0 3.18055e-015 1.4042 -1.926 1.125 8.94531e-016 -1.98785e-016 6.36111e-015 2.0956 0.66 -0.3894 1.49089e-016 -3.97569e-016 -0 5.0395 -0.09 2.4971 6.4605e-016 0 3.18055e-015 3.7921 -1.552 1.4806 5.96354e-016 0 3.18055e-015 1.4655 -1.808 0.9609 8.94531e-016 -1.98785e-016 6.36111e-015 4.9141 -1.269 0.3591 6.4605e-016 0 3.18055e-015 3.1477 -1.685 0.8462 5.96354e-016 0 3.18055e-015 0.8055 -1.585 0.7955 8.94531e-016 -1.98785e-016 6.36111e-015 -1.7069 20.075 5.0056 0 0 -0 -13.6458 -0.047 -4.849 -1.4496 0.0636048 -5.0245 -28.3255 -0.9759 2.2888 -1.74811 1.20616 -16.8394 -22.1583 -0.53 10.8316 -1.19271e-015 1.98785e-016 -3.18055e-015 -0.786 0.112 2.5817 -3.97569e-016 1.98785e-016 -3.18055e-015 -0.3601 -0.878 4.2331 -2.98177e-016 1.98785e-016 -3.18055e-015 -1.8127 -1.216 2.2227 -2.98177e-016 3.97569e-016 -0 -0.9571 1.114 1.7695 4.96962e-016 0 -6.36111e-015 -4.1246 0.487 4.1451 -9.93923e-017 3.97569e-016 -0 -3.4052 -1.454 2.7682 -8.94531e-016 5.96354e-016 -0 -1.4531 -1.795 1.2713 -3.97569e-016 3.97569e-016 -0 -5.6954 0.21 2.1184 -9.93923e-017 3.97569e-016 -0 -3.9766 -1.54 2.3863 -8.94531e-016 5.96354e-016 -0 -1.4042 -1.926 1.125 -3.97569e-016 3.97569e-016 -0 -2.0956 0.66 -0.3894 4.96962e-016 0 -6.36111e-015 -5.0395 -0.09 2.4971 -9.93923e-017 3.97569e-016 -0 -3.7921 -1.552 1.4806 -8.94531e-016 5.96354e-016 -0 -1.4655 -1.808 0.9609 -3.97569e-016 3.97569e-016 -0 -4.9141 -1.269 0.3592 -9.93923e-017 3.97569e-016 -0 -3.1477 -1.685 0.8462 -8.94531e-016 5.96354e-016 -0 -0.8055 -1.585 0.7955 -3.97569e-016 3.97569e-016 -0 8.367 -8.2066 0.5982 -4.66115 -1.03232 0.120763 2.1923 -43.463 -0.4932 0.00990601 1.55097 0.177175 0.7333 -45.8593 -2.6451 4.65196 -0.54114 -0.255042 -8.367 -8.2066 0.5982 4.66115 -1.03222 -0.120763 -2.1923 -43.463 -0.4931 -0.00990459 1.5509 -0.177176 -0.7333 -45.8593 -2.6451 -4.65196 -0.541171 0.255041 
21.335 64.1564 -31.1961 -0.0025415 17.9983 5.99931 -3.55271e-015 -1.186 -1.5018 -5.76992 13.523 4.35806 0 9.964 0.2134 -13.1658 26.4665 10.5797 3.55271e-015 13.134 -3.2573 -13.1658 26.4665 10.5797 -7.10543e-015 20.686 -1.6905 -0.00228505 -17.0008 -16.0012 -5.32907e-015 7.238 -0.1237 -15.0752 -30.1213 -25.7002 1.7069 20.075 5.0056 8.99166 -19.3494 -53.9134 13.6458 -0.047 -4.849 -7.78454 -2.61264 -15.1482 28.3255 -0.9759 2.2888 -15.9248 -15.2136 -27.6644 22.1583 -0.53 10.8316 -62.4764 -13.9026 4.1831 0.786 0.112 2.5817 4.18316e-007 -1.99024e-007 -3.36139e-006 0.3601 -0.878 4.2331 7.95139e-015 4.77083e-015 -9.54166e-015 1.8127 -1.216 2.2227 2.45113e-007 7.79208e-007 -2.44558e-007 0.9571 1.114 1.7695 9.54166e-015 -1.59028e-015 1.27222e-014 4.1246 0.487 4.1451 4.18316e-007 -1.99024e-007 -3.36139e-006 3.4052 -1.454 2.7682 3.18055e-015 3.18055e-015 -6.36111e-015 1.4531 -1.795 1.2713 2.45113e-007 7.79208e-007 -2.44558e-007 5.6954 0.21 2.1184 4.18316e-007 -1.99024e-007 -3.36139e-006 3.9766 -1.54 2.3863 3.18055e-015 3.18055e-015 -6.36111e-015 1.4042 -1.926 1.125 2.45113e-007 7.79208e-007 -2.44558e-007 2.0956 0.66 -0.3894 9.54166e-015 -1.59028e-015 1.27222e-014 5.0395 -0.09 2.4971 4.18316e-007 -1.99024e-007 -3.36139e-006 3.7921 -1.552 1.4806 3.18055e-015 3.18055e-015 -6.36111e-015 1.4655 -1.808 0.9609 2.45113e-007 7.79208e-007 -2.44558e-007 4.9141 -1.269 0.3591 4.18316e-007 -1.99024e-007 -3.36139e-006 3.1477 -1.685 0.8462 3.18055e-015 3.18055e-015 -6.36111e-015 0.8055 -1.585 0.7955 2.45113e-007 7.79208e-007 -2.44558e-007 -1.7069 20.075 5.0056 -4.78999 0.544861 -7.43968 -13.6458 -0.047 -4.849 29.4227 -32.7013 54.9025 -28.3255 -0.9759 2.2888 -29.1163 -16.6423 31.7008 -22.1583 -0.53 10.8316 6.49223 2.60875 0.0253999 -0.786 0.112 2.5817 -6.36111e-015 1.59028e-015 -0 -0.3601 -0.878 4.2331 -3.18055e-015 -7.95139e-016 -0 -1.8127 -1.216 2.2227 -3.18055e-015 0 3.18055e-015 -0.9571 1.114 1.7695 -3.18055e-015 1.59028e-015 -1.59028e-015 -4.1246 0.487 4.1451 -3.18055e-015 -1.59028e-014 6.36111e-015 -3.4052 -1.454 2.7682 -6.36111e-015 1.59028e-015 -1.59028e-015 -1.4531 -1.795 1.2713 -3.18055e-015 -7.95139e-016 4.77083e-015 -5.6954 0.21 2.1184 -3.18055e-015 -1.59028e-014 6.36111e-015 -3.9766 -1.54 2.3863 -6.36111e-015 1.59028e-015 -1.59028e-015 -1.4042 -1.926 1.125 -3.18055e-015 -7.95139e-016 4.77083e-015 -2.0956 0.66 -0.3894 -3.18055e-015 1.59028e-015 -1.59028e-015 -5.0395 -0.09 2.4971 -3.18055e-015 -1.59028e-014 6.36111e-015 -3.7921 -1.552 1.4806 -6.36111e-015 1.59028e-015 -1.59028e-015 -1.4655 -1.808 0.9609 -3.18055e-015 -7.95139e-016 4.77083e-015 -4.9141 -1.269 0.3592 -3.18055e-015 -1.59028e-014 6.36111e-015 -3.1477 -1.685 0.8462 -6.36111e-015 1.59028e-015 -1.59028e-015 -0.8055 -1.585 0.7955 -3.18055e-015 -7.95139e-016 4.77083e-015 8.367 -8.2066 0.5982 51.1769 -53.8749 57.3706 2.1923 -43.463 -0.4932 172.606 44.1992 -166.684 0.7333 -45.8593 -2.6451 6.50482 67.8953 9.61513 -8.367 -8.2066 0.5982 -38.0136 -61.2689 -46.3075 -2.1923 -43.463 -0.4931 -172.227 44.3551 166.186 -0.7333 -45.8593 -2.6451 8.36583 62.2929 -14.3514 
21.335 64.1564 -31.1961 -0.0025403 17.9983 5.99931 3.55271e-015 -1.186 -1.5018 -5.76835 13.5974 4.37921 -3.55271e-015 9.964 0.2134 -13.1816 26.6116 10.638 0 13.134 -3.2573 -13.1816 26.6117 10.638 0 20.686 -1.6905 -0.00229956 -17.0008 -16.0012 1.77636e-015 7.238 -0.1237 -15.0752 -30.1213 -25.7002 1.7069 20.075 5.0056 9.01588 -19.7712 -53.5697 13.6458 -0.047 -4.849 -7.78454 -2.61264 -15.1482 28.3255 -0.9759 2.2888 -16.2133 -14.9164 -28.698 22.1583 -0.53 10.8316 -62.1861 -14.4704 4.36952 0.786 0.112 2.5817 4.41391e-031 -7.95139e-015 3.18055e-015 0.3601 -0.878 4.2331 4.77083e-015 -3.18055e-015 9.54166e-015 1.8127 -1.216 2.2227 4.41391e-031 -7.95139e-015 3.18055e-015 0.9571 1.114 1.7695 8.82781e-032 -1.59028e-015 3.18055e-015 4.1246 0.487 4.1451 1.59028e-015 4.77083e-015 1.27222e-014 3.4052 -1.454 2.7682 -6.36111e-015 -6.36111e-015 6.36111e-015 1.4531 -1.795 1.2713 -3.18055e-015 -1.59028e-015 3.18055e-015 5.6954 0.21 2.1184 1.59028e-015 4.77083e-015 1.27222e-014 3.9766 -1.54 2.3863 -6.36111e-015 -6.36111e-015 6.36111e-015 1.4042 -1.926 1.125 -3.18055e-015 -1.59028e-015 3.18055e-015 2.0956 0.66 -0.3894 8.82781e-032 -1.59028e-015 3.18055e-015 5.0395 -0.09 2.4971 1.59028e-015 4.77083e-015 1.27222e-014 3.7921 -1.552 1.4806 -6.36111e-015 -6.36111e-015 6.36111e-015 1.4655 -1.808 0.9609 -3.18055e-015 -1.59028e-015 3.18055e-015 4.9141 -1.269 0.3591 1.59028e-015 4.77083e-015 1.27222e-014 3.1477 -1.685 0.8462 -6.36111e-015 -6.36111e-015 6.36111e-015 0.8055 -1.585 0.7955 -3.18055e-015 -1.59028e-015 3.18055e-015 -1.7069 20.075 5.0056 -5.19608 0.284089 -7.89464 -13.6458 -0.047 -4.849 29.2024 -32.9326 55.1575 -28.3255 -0.9759 2.2888 -28.6045 -16.1827 32.0686 -22.1583 -0.53 10.8316 6.7353 2.64101 -0.341246 -0.786 0.112 2.5817 -3.18055e-015 2.38542e-015 -0 -0.3601 -0.878 4.2331 -5.67118e-007 -1.26527e-006 -1.91399e-006 -1.8127 -1.216 2.2227 -9.92137e-007 1.80039e-006 6.06409e-006 -0.9571 1.114 1.7695 -3.18055e-015 7.95139e-016 -0 -4.1246 0.487 4.1451 0 4.77083e-015 -0 -3.4052 -1.454 2.7682 -5.67118e-007 -1.26527e-006 -1.91399e-006 -1.4531 -1.795 1.2713 -9.92137e-007 1.80039e-006 6.06409e-006 -5.6954 0.21 2.1184 0 4.77083e-015 -0 -3.9766 -1.54 2.3863 -5.67118e-007 -1.26527e-006 -1.91399e-006 -1.4042 -1.926 1.125 -9.92137e-007 1.80039e-006 6.06409e-006 -2.0956 0.66 -0.3894 -3.18055e-015 7.95139e-016 -0 -5.0395 -0.09 2.4971 0 4.77083e-015 -0 -3.7921 -1.552 1.4806 -5.67118e-007 -1.26527e-006 -1.91399e-006 -1.4655 -1.808 0.9609 -9.92137e-007 1.80039e-006 6.06409e-006 -4.9141 -1.269 0.3592 0 4.77083e-015 -0 -3.1477 -1.685 0.8462 -5.67118e-007 -1.26527e-006 -1.91399e-006 -0.8055 -1.585 0.7955 -9.92137e-007 1.80039e-006 6.06409e-006 8.367 -8.2066 0.5982 51.1772 -53.8747 57.3708 2.1923 -43.463 -0.4932 172.606 44.1991 -166.684 0.7333 -45.8593 -2.6451 6.5049 67.8953 9.61508 -8.367 -8.2066 0.5982 -38.0138 -61.2688 -46.3077 -2.1923 -43.463 -0.4931 -172.227 44.3551 166.186 -0.7333 -45.8593 -2.6451 8.36582 62.2929 -14.3513 
21.335 64.1564 -31.1961 -0.00254145 17.9983 5.99931 -3.55271e-015 -1.186 -1.5018 -5.76674 13.6717 4.40036 0 9.964 0.2134 -13.1974 26.7569 10.6964 0 13.134 -3.2573 -13.1974 26.7569 10.6964 -7.10543e-015 20.686 -1.6905 -0.00230014 -17.0007 -16.0012 5.32907e-015 7.238 -0.1237 -15.0752 -30.1213 -25.7003 1.7069 20.075 5.0056 9.04288 -20.1929 -53.2248 13.6458 -0.047 -4.849 -7.78453 -2.61265 -15.1482 28.3255 -0.9759 2.2888 -16.4963 -14.6139 -29.73 22.1583 -0.53 10.8316 -61.893 -15.0376 4.5595 0.786 0.112 2.5817 3.18055e-015 1.59028e-015 -0 0.3601 -0.878 4.2331 -7.54008e-007 8.45622e-008 -8.72564e-007 1.8127 -1.216 2.2227 -1.76556e-031 -3.18055e-015 -3.18055e-015 0.9571 1.114 1.7695 4.77083e-015 4.77083e-015 6.36111e-015 4.1246 0.487 4.1451 -2.20695e-030 7.95139e-015 1.59028e-014 3.4052 -1.454 2.7682 -7.54008e-007 8.45622e-008 -8.72564e-007 1.4531 -1.795 1.2713 -3.18055e-015 0 3.18055e-015 5.6954 0.21 2.1184 -2.20695e-030 7.95139e-015 1.59028e-014 3.9766 -1.54 2.3863 -7.54008e-007 8.45622e-008 -8.72564e-007 1.4042 -1.926 1.125 -3.18055e-015 0 3.18055e-015 2.0956 0.66 -0.3894 4.77083e-015 4.77083e-015 6.36111e-015 5.0395 -0.09 2.4971 -2.20695e-030 7.95139e-015 1.59028e-014 3.7921 -1.552 1.4806 -7.54008e-007 8.45622e-008 -8.72564e-007 1.4655 -1.808 0.9609 -3.18055e-015 0 3.18055e-015 4.9141 -1.269 0.3591 -2.20695e-030 7.95139e-015 1.59028e-014 3.1477 -1.685 0.8462 -7.54008e-007 8.45622e-008 -8.72564e-007 0.8055 -1.585 0.7955 -3.18055e-015 0 3.18055e-015 -1.7069 20.075 5.0056 -5.60445 0.0264372 -8.35168 -13.6458 -0.047 -4.849 28.9827 -33.1649 55.4122 -28.3255 -0.9759 2.2888 -28.0967 -15.7197 32.4315 -22.1583 -0.53 10.8316 6.97864 2.67171 -0.70812 -0.786 0.112 2.5817 3.18055e-015 1.59028e-015 -1.59028e-015 -0.3601 -0.878 4.2331 0 0 -1.59028e-015 -1.8127 -1.216 2.2227 -6.62086e-032 -7.95139e-016 -4.77083e-015 -0.9571 1.114 1.7695 3.18055e-015 1.59028e-015 -0 -4.1246 0.487 4.1451 -6.36111e-015 -8.74653e-015 3.18055e-015 -3.4052 -1.454 2.7682 3.18055e-015 -7.95139e-016 -1.59028e-015 -1.4531 -1.795 1.2713 3.18055e-015 -3.97569e-015 -4.77083e-015 -5.6954 0.21 2.1184 -6.36111e-015 -8.74653e-015 3.18055e-015 -3.9766 -1.54 2.3863 3.18055e-015 -7.95139e-016 -1.59028e-015 -1.4042 -1.926 1.125 3.18055e-015 -3.97569e-015 -4.77083e-015 -2.0956 0.66 -0.3894 3.18055e-015 1.59028e-015 -0 -5.0395 -0.09 2.4971 -6.36111e-015 -8.74653e-015 3.18055e-015 -3.7921 -1.552 1.4806 3.18055e-015 -7.95139e-016 -1.59028e-015 -1.4655 -1.808 0.9609 3.18055e-015 -3.97569e-015 -4.77083e-015 -4.9141 -1.269 0.3592 -6.36111e-015 -8.74653e-015 3.18055e-015 -3.1477 -1.685 0.8462 3.18055e-015 -7.95139e-016 -1.59028e-015 -0.8055 -1.585 0.7955 3.18055e-015 -3.97569e-015 -4.77083e-015 8.367 -8.2066 0.5982 51.1776 -53.8745 57.3711 2.1923 -43.463 -0.4932 172.606 44.199 -166.684 0.7333 -45.8593 -2.6451 6.50486 67.8952 9.6151 -8.367 -8.2066 0.5982 -38.0134 -61.269 -46.3074 -2.1923 -43.463 -0.4931 -172.227 44.3551 166.186 -0.7333 -45.8593 -2.6451 8.36579 62.2929 -14.3513 
